<svg width="23" height="24" viewBox="0 0 23 24" fill="none" xmlns="http://www.w3.org/2000/svg">
<g id="Frame 1000006217">
<g id="Group 39918">
<path id="Vector" d="M15.5857 3.5L11.5139 5.8504L13.0192 6.72024L15.5857 5.2386L21.4789 8.64055V15.4455L15.5857 18.8485L9.69254 15.4455V8.64055L10.8688 7.96102L9.36353 7.09226L8.18726 7.77178V16.3154L15.5857 20.5861L22.9842 16.3154V7.77178L15.5857 3.5Z" fill="#FFDD00"/>
<path id="Vector_2" d="M7.41427 20.5862L11.4861 18.2358L9.98078 17.3659L7.41427 18.8476L1.52108 15.4456V8.64067L7.41427 5.23765L13.3075 8.64067V15.4456L12.1312 16.1252L13.6365 16.9939L14.8127 16.3144V7.77083L7.41427 3.50012L0.0157919 7.77083V16.3144L7.41427 20.5862Z" fill="#FFDD00"/>
</g>
</g>
</svg>
